HIERARCHY
ROOT Junyuan_V1:Solving:Hips
{
	OFFSET 0.000000 0.000000 0.000000
	CHANNELS 6 Xposition Yposition Zposition Xrotation Yrotation Zrotation
	JOINT Junyuan_V1:Solving:Spine
	{
		OFFSET 0.000000 -11.180205 2.228564
		CHANNELS 6 Xposition Yposition Zposition Xrotation Yrotation Zrotation
		JOINT Junyuan_V1:Solving:Spine1
		{
			OFFSET 0.000000 -8.682996 1.531049
			CHANNELS 6 Xposition Yposition Zposition Xrotation Yrotation Zrotation
			JOINT Junyuan_V1:Solving:Spine2
			{
				OFFSET 0.000000 -8.783394 0.768450
				CHANNELS 6 Xposition Yposition Zposition Xrotation Yrotation Zrotation
				JOINT Junyuan_V1:Solving:Spine3
				{
					OFFSET 0.000000 -8.816944 0.000000
					CHANNELS 6 Xposition Yposition Zposition Xrotation Yrotation Zrotation
					JOINT Junyuan_V1:Solving:Neck
					{
						OFFSET 0.000000 -11.336071 -1.133605
						CHANNELS 6 Xposition Yposition Zposition Xrotation Yrotation Zrotation
						JOINT Junyuan_V1:Solving:Neck1
						{
							OFFSET 0.000000 -7.643246 -0.668695
							CHANNELS 6 Xposition Yposition Zposition Xrotation Yrotation Zrotation
							JOINT Junyuan_V1:Solving:Head
							{
								OFFSET 0.000000 -7.555870 -1.332303
								CHANNELS 6 Xposition Yposition Zposition Xrotation Yrotation Zrotation
								JOINT Junyuan_V1:Solving:HeadEnd
								{
									OFFSET 0.000000 -9.728081 0.000002
									CHANNELS 6 Xposition Yposition Zposition Xrotation Yrotation Zrotation
									End Site
									{
										OFFSET 0.000000 -9.728081 0.000002
									}
								}
							}
						}
					}
					JOINT Junyuan_V1:Solving:RightShoulder
					{
						OFFSET 0.000000 -8.097195 -5.270916
						CHANNELS 6 Xposition Yposition Zposition Xrotation Yrotation Zrotation
						JOINT Junyuan_V1:Solving:RightArm
						{
							OFFSET -20.762394 -0.000008 0.000000
							CHANNELS 6 Xposition Yposition Zposition Xrotation Yrotation Zrotation
							JOINT Junyuan_V1:Solving:RightForeArm
							{
								OFFSET -29.048946 -0.000008 0.000000
								CHANNELS 6 Xposition Yposition Zposition Xrotation Yrotation Zrotation
								JOINT Junyuan_V1:Solving:RightHand
								{
									OFFSET -22.031235 -0.000008 0.000000
									CHANNELS 6 Xposition Yposition Zposition Xrotation Yrotation Zrotation
									JOINT Junyuan_V1:Solving:RightHandThumb1
									{
										OFFSET -3.579254 2.890213 -2.661497
										CHANNELS 6 Xposition Yposition Zposition Xrotation Yrotation Zrotation
										End Site
										{
											OFFSET -5.229485 0.000000 -5.277840
										}
									}
									JOINT Junyuan_V1:Solving:RightHandMiddle1
									{
										OFFSET -9.544678 -0.000004 0.061184
										CHANNELS 6 Xposition Yposition Zposition Xrotation Yrotation Zrotation
										End Site
										{
											OFFSET -7.429878 -0.000004 0.000000
										}
									}
								}
							}
						}
					}
					JOINT Junyuan_V1:Solving:LeftShoulder
					{
						OFFSET 0.000000 -8.097195 -5.270916
						CHANNELS 6 Xposition Yposition Zposition Xrotation Yrotation Zrotation
						JOINT Junyuan_V1:Solving:LeftArm
						{
							OFFSET 20.762394 -0.000008 0.000000
							CHANNELS 6 Xposition Yposition Zposition Xrotation Yrotation Zrotation
							JOINT Junyuan_V1:Solving:LeftForeArm
							{
								OFFSET 29.048946 -0.000008 0.000000
								CHANNELS 6 Xposition Yposition Zposition Xrotation Yrotation Zrotation
								JOINT Junyuan_V1:Solving:LeftHand
								{
									OFFSET 22.031235 -0.000008 0.000000
									CHANNELS 6 Xposition Yposition Zposition Xrotation Yrotation Zrotation
									JOINT Junyuan_V1:Solving:LeftHandThumb1
									{
										OFFSET 3.579254 2.890213 -2.661497
										CHANNELS 6 Xposition Yposition Zposition Xrotation Yrotation Zrotation
										End Site
										{
											OFFSET 5.229485 0.000000 -5.277840
										}
									}
									JOINT Junyuan_V1:Solving:LeftHandMiddle1
									{
										OFFSET 9.544678 -0.000004 0.061184
										CHANNELS 6 Xposition Yposition Zposition Xrotation Yrotation Zrotation
										End Site
										{
											OFFSET 7.429878 -0.000004 0.000000
										}
									}
								}
							}
						}
					}
				}
			}
		}
	}
	JOINT Junyuan_V1:Solving:RightUpLeg
	{
		OFFSET -10.825166 0.000000 0.000000
		CHANNELS 6 Xposition Yposition Zposition Xrotation Yrotation Zrotation
		JOINT Junyuan_V1:Solving:RightLeg
		{
			OFFSET 0.000000 43.678444 -0.000006
			CHANNELS 6 Xposition Yposition Zposition Xrotation Yrotation Zrotation
			JOINT Junyuan_V1:Solving:RightFoot
			{
				OFFSET 0.000000 36.488441 -0.000006
				CHANNELS 6 Xposition Yposition Zposition Xrotation Yrotation Zrotation
				JOINT Junyuan_V1:Solving:RightForeFoot
				{
					OFFSET 0.000000 3.967834 -0.000000
					CHANNELS 6 Xposition Yposition Zposition Xrotation Yrotation Zrotation
					JOINT Junyuan_V1:Solving:RightToeBase
					{
						OFFSET 0.000000 0.000000 -15.539299
						CHANNELS 6 Xposition Yposition Zposition Xrotation Yrotation Zrotation
						JOINT Junyuan_V1:Solving:RightToeBaseEnd
						{
							OFFSET 0.000000 0.000000 -3.486985
							CHANNELS 6 Xposition Yposition Zposition Xrotation Yrotation Zrotation
							End Site
							{
								OFFSET 0.000000 -3.486992 0.000000
							}
						}
					}
				}
			}
		}
	}
	JOINT Junyuan_V1:Solving:LeftUpLeg
	{
		OFFSET 10.825166 0.000000 0.000000
		CHANNELS 6 Xposition Yposition Zposition Xrotation Yrotation Zrotation
		JOINT Junyuan_V1:Solving:LeftLeg
		{
			OFFSET 0.000000 43.678444 -0.000006
			CHANNELS 6 Xposition Yposition Zposition Xrotation Yrotation Zrotation
			JOINT Junyuan_V1:Solving:LeftFoot
			{
				OFFSET 0.000000 36.488441 -0.000006
				CHANNELS 6 Xposition Yposition Zposition Xrotation Yrotation Zrotation
				JOINT Junyuan_V1:Solving:LeftForeFoot
				{
					OFFSET 0.000000 3.967834 -0.000000
					CHANNELS 6 Xposition Yposition Zposition Xrotation Yrotation Zrotation
					JOINT Junyuan_V1:Solving:LeftToeBase
					{
						OFFSET 0.000000 0.000000 -15.539299
						CHANNELS 6 Xposition Yposition Zposition Xrotation Yrotation Zrotation
						JOINT Junyuan_V1:Solving:LeftToeBaseEnd
						{
							OFFSET 0.000000 0.000000 -3.974441
							CHANNELS 6 Xposition Yposition Zposition Xrotation Yrotation Zrotation
							End Site
							{
								OFFSET 0.000000 -3.974442 0.000000
							}
						}
					}
				}
			}
		}
	}
}
MOTION
Frames: 6
Frame Time: 0.041667
-65.782303 -18.384886 -81.466850 52.283934 -172.542845 0.828610 -0.000002 -11.180191 2.228575 14.451685 1.231324 0.974215 -0.000006 -8.682992 1.531060 15.204590 0.097932 0.072769 -0.000011 -8.783388 0.768463 22.322902 -3.866076 2.909182 0.000012 -8.816942 -0.000013 -7.356139 -0.245463 -1.024648 0.000012 -11.336075 -1.133595 -35.284009 -10.117999 6.629618 0.000010 -7.643249 -0.668709 12.893883 2.851995 -3.552413 0.000019 -7.555872 -1.332289 1.589990 0.076428 0.141396 0.000007 -9.728096 -0.000001 0.000002 0.000000 -0.000000 0.000008 -8.097210 -5.270904 0.000011 5.050691 23.851478 -20.762394 -0.000010 0.000011 -78.590800 -15.126817 -93.175719 -29.048946 -0.000024 -0.000008 -42.581240 -14.603110 -13.044429 -22.031218 -0.000019 0.000002 3.400315 -9.030756 20.733463 -3.579281 2.890214 -2.661478 0.000005 0.000005 0.000006 -9.544691 -0.000009 0.061189 0.000002 0.000003 0.000002 0.000009 -8.097206 -5.270904 0.000004 -10.496785 -18.018005 20.762363 -0.000010 0.000027 -85.986720 33.251792 90.358574 29.048956 -0.000024 -0.000023 -55.199110 7.031310 9.988568 22.031237 0.000011 0.000004 2.949977 7.086349 -22.671585 3.579258 2.890219 -2.661484 -0.000001 0.000002 -0.000005 9.544695 -0.000018 0.061188 0.000000 -0.000001 0.000002 -10.825154 0.000021 0.000000 -73.900529 30.937185 9.209743 0.000001 43.678440 0.000004 49.603617 -0.000009 0.000000 -0.000009 36.488438 -0.000003 -11.792710 13.253332 -8.306325 0.000005 3.967827 0.000002 0.000000 0.000001 0.000001 -0.000007 0.000014 -15.539289 8.342521 0.000003 -0.000003 0.000001 -0.000007 -3.486986 0.000002 0.000001 -0.000001 10.825164 0.000011 0.000006 -73.274024 -14.085642 -20.642329 -0.000001 43.678417 -0.000014 42.834080 0.000001 0.000002 0.000007 36.488419 -0.000004 -1.662727 -1.287468 5.208915 -0.000020 3.967827 -0.000004 -0.000000 -0.000003 -0.000000 -0.000014 -0.000018 -15.539306 -0.214000 -0.000001 0.000000 -0.000001 -0.000008 -3.974435 -0.000001 0.000001 -0.000000 
-65.884369 -18.397217 -81.393501 52.388900 -172.681348 0.715095 -0.000005 -11.180192 2.228559 14.438952 1.279148 1.044789 0.000003 -8.682990 1.531040 15.168529 0.079759 0.109267 -0.000005 -8.783387 0.768478 22.427029 -3.892268 2.788922 0.000005 -8.816959 -0.000003 -7.304078 -0.290127 -1.182005 0.000009 -11.336072 -1.133603 -35.120665 -10.154599 6.959947 0.000005 -7.643248 -0.668682 12.840406 2.844185 -3.602478 -0.000006 -7.555852 -1.332295 1.643432 0.081296 0.118604 0.000006 -9.728081 -0.000012 -0.000004 0.000000 0.000000 0.000012 -8.097206 -5.270935 0.000006 5.141648 24.070958 -20.762388 -0.000011 0.000012 -78.834952 -15.101499 -93.224958 -29.048958 -0.000021 -0.000007 -42.522917 -14.655832 -13.063107 -22.031223 -0.000018 -0.000004 3.381934 -9.014718 20.663901 -3.579263 2.890206 -2.661493 -0.000002 -0.000002 -0.000002 -9.544703 -0.000012 0.061182 -0.000001 0.000004 -0.000002 0.000016 -8.097225 -5.270928 0.000003 -10.431004 -17.777546 20.762396 -0.000009 0.000011 -85.929367 33.460222 90.038470 29.048964 -0.000012 -0.000017 -55.385826 6.933043 9.919864 22.031221 -0.000034 0.000002 2.993857 7.154606 -22.778817 3.579280 2.890202 -2.661494 -0.000003 -0.000002 -0.000006 9.544683 -0.000013 0.061186 0.000003 -0.000001 -0.000004 -10.825151 0.000022 -0.000013 -73.237557 30.872216 8.521459 0.000003 43.678436 0.000016 49.468820 0.000002 0.000005 -0.000011 36.488407 -0.000008 -11.780692 12.340695 -9.104656 -0.000018 3.967834 0.000001 0.000000 -0.000002 0.000003 -0.000014 0.000002 -15.539302 8.224646 0.000003 -0.000001 -0.000000 -0.000007 -3.486986 0.000003 0.000001 -0.000000 10.825162 0.000016 -0.000006 -73.226069 -14.241604 -20.451743 -0.000003 43.678429 0.000031 43.010412 0.000002 -0.000000 -0.000007 36.488422 -0.000013 -1.798509 -1.269292 5.160125 -0.000015 3.967842 -0.000004 -0.000000 -0.000004 -0.000001 -0.000004 -0.000003 -15.539315 -0.363377 -0.000006 0.000001 -0.000005 -0.000007 -3.974445 0.000001 -0.000002 0.000001 
-65.977249 -18.412508 -81.280739 52.513749 -172.878194 0.577183 0.000013 -11.180227 2.228563 14.449035 1.342100 1.045251 -0.000007 -8.683015 1.531054 15.204706 0.090429 0.079819 -0.000002 -8.783413 0.768429 22.453998 -3.792979 2.796599 -0.000014 -8.816943 -0.000007 -7.324068 -0.256764 -1.169884 -0.000009 -11.336065 -1.133605 -35.085989 -10.326309 7.184217 -0.000000 -7.643254 -0.668709 13.057106 2.920846 -3.884074 0.000010 -7.555883 -1.332309 1.637651 0.079544 0.116865 -0.000005 -9.728081 0.000011 0.000006 -0.000000 0.000000 -0.000002 -8.097191 -5.270931 0.000006 5.051945 24.139494 -20.762390 -0.000017 -0.000005 -78.907591 -14.929829 -93.288998 -29.048969 -0.000014 -0.000005 -42.227122 -14.826911 -13.075474 -22.031214 -0.000010 -0.000007 3.328776 -8.895680 20.612995 -3.579259 2.890205 -2.661489 0.000002 0.000003 0.000004 -9.544678 -0.000014 0.061182 0.000001 0.000003 0.000000 -0.000010 -8.097191 -5.270931 0.000002 -10.493825 -17.687818 20.762400 -0.000009 0.000006 -85.814961 33.758282 89.710075 29.048956 -0.000008 -0.000001 -55.501977 6.861290 9.861561 22.031229 -0.000028 -0.000006 3.009002 7.147106 -22.903805 3.579252 2.890205 -2.661505 0.000002 0.000002 -0.000003 9.544687 -0.000010 0.061180 0.000002 -0.000004 0.000002 -10.825166 -0.000029 -0.000005 -72.547599 30.661720 7.898654 0.000008 43.678436 0.000017 49.173759 0.000005 0.000000 -0.000010 36.488434 0.000000 -11.571849 11.416239 -9.673767 -0.000004 3.967819 0.000002 0.000000 -0.000001 0.000002 0.000008 0.000009 -15.539289 7.682524 -0.000000 0.000001 -0.000009 -0.000007 -3.486987 0.000002 0.000003 -0.000001 10.825176 -0.000027 -0.000005 -73.182410 -14.470997 -20.246120 -0.000004 43.678459 0.000007 43.225054 0.000002 0.000002 0.000003 36.488407 -0.000010 -1.991699 -1.148828 5.176923 -0.000015 3.967834 0.000020 0.000002 0.000000 -0.000000 0.000009 -0.000010 -15.539302 -0.198863 0.000001 -0.000000 -0.000012 -0.000008 -3.974446 -0.000001 -0.000000 -0.000001 
-66.050674 -18.432823 -81.148453 52.642447 -173.142468 0.428848 0.000001 -11.180187 2.228565 14.439676 1.421068 1.068066 0.000005 -8.682961 1.531055 15.225258 0.092812 0.076496 -0.000011 -8.783399 0.768458 22.513232 -3.754947 2.750552 0.000011 -8.816936 -0.000001 -7.324105 -0.236864 -1.204930 -0.000010 -11.336071 -1.133607 -34.854988 -10.317046 7.254662 -0.000018 -7.643253 -0.668696 12.957541 2.977153 -3.835193 0.000000 -7.555860 -1.332315 1.630447 0.081393 0.129872 -0.000005 -9.728088 0.000005 -0.000001 -0.000000 -0.000000 -0.000004 -8.097195 -5.270925 0.000003 5.022529 24.190700 -20.762384 -0.000006 0.000001 -79.007298 -14.882654 -93.298601 -29.048971 -0.000013 -0.000016 -42.121930 -14.931736 -13.115887 -22.031242 -0.000003 0.000001 3.321162 -8.853681 20.658348 -3.579263 2.890205 -2.661498 0.000003 0.000009 -0.000001 -9.544695 -0.000012 0.061199 0.000001 0.000005 -0.000002 -0.000001 -8.097202 -5.270918 -0.000003 -10.497027 -17.602499 20.762390 -0.000009 0.000003 -85.732343 33.959434 89.452426 29.048956 0.000006 -0.000008 -55.718248 6.806106 9.862148 22.031240 -0.000020 -0.000015 3.076333 7.261808 -23.034191 3.579235 2.890212 -2.661481 -0.000004 0.000005 -0.000004 9.544690 -0.000003 0.061195 0.000000 0.000003 -0.000003 -10.825154 0.000015 -0.000000 -71.778868 30.279646 7.293839 -0.000016 43.678417 -0.000002 48.604815 0.000008 0.000003 -0.000003 36.488422 -0.000006 -11.198252 10.703500 -9.988061 0.000008 3.967826 -0.000003 -0.000001 -0.000002 0.000000 0.000003 -0.000001 -15.539294 7.108571 -0.000001 0.000003 -0.000004 -0.000009 -3.486998 -0.000003 0.000001 -0.000001 10.825168 0.000017 -0.000007 -73.186986 -14.755913 -20.037941 -0.000003 43.678440 -0.000001 43.506218 0.000003 0.000002 0.000006 36.488415 0.000006 -2.179607 -0.930942 5.167664 -0.000001 3.967827 -0.000001 -0.000000 -0.000004 -0.000000 -0.000013 -0.000008 -15.539291 -0.035782 0.000002 -0.000002 -0.000005 -0.000008 -3.974449 -0.000001 -0.000003 -0.000000 
-66.100639 -18.434849 -81.027328 52.710578 -173.385500 0.284678 -0.000015 -11.180184 2.228558 14.400930 1.426119 1.098515 -0.000003 -8.682996 1.531029 15.217723 0.089996 0.105582 -0.000008 -8.783395 0.768479 22.603232 -3.736465 2.647027 -0.000006 -8.816946 -0.000005 -7.347625 -0.248031 -1.295377 -0.000013 -11.336060 -1.133627 -34.678749 -10.284055 7.338998 0.000000 -7.643251 -0.668710 12.929544 3.028896 -3.716350 -0.000005 -7.555852 -1.332306 1.595129 0.086950 0.143744 0.000004 -9.728088 0.000012 0.000001 -0.000000 -0.000000 0.000009 -8.097176 -5.270936 0.000005 5.055483 24.297413 -20.762394 -0.000003 -0.000011 -79.111513 -14.877972 -93.270536 -29.048975 -0.000012 -0.000005 -42.168102 -15.012230 -13.203187 -22.031242 -0.000017 -0.000007 3.323955 -8.834339 20.715390 -3.579273 2.890203 -2.661509 0.000005 0.000002 0.000005 -9.544679 -0.000017 0.061187 0.000002 0.000003 -0.000001 0.000011 -8.097183 -5.270937 -0.000002 -10.459782 -17.484849 20.762388 -0.000001 0.000004 -85.670544 34.155297 89.233532 29.048935 -0.000017 -0.000001 -55.884539 6.745856 9.836978 22.031237 -0.000008 -0.000004 3.157142 7.430381 -23.099442 3.579282 2.890220 -2.661500 -0.000000 0.000007 -0.000003 9.544697 -0.000010 0.061204 0.000000 -0.000005 0.000005 -10.825161 0.000029 0.000000 -71.054431 29.703656 6.649446 0.000004 43.678455 0.000007 47.824008 -0.000000 0.000003 0.000005 36.488422 -0.000006 -10.866369 9.597253 -8.543489 0.000000 3.967827 -0.000002 -0.000002 0.000003 -0.000000 -0.000004 -0.000011 -15.539307 8.037930 0.000002 -0.000001 0.000005 -0.000007 -3.486983 0.000002 0.000002 0.000001 10.825161 0.000016 -0.000001 -73.307389 -15.107815 -19.920014 0.000010 43.678452 -0.000005 43.797837 -0.000000 0.000001 -0.000008 36.488426 -0.000003 -2.343064 -0.629419 5.148936 -0.000009 3.967827 0.000003 0.000000 0.000001 0.000000 -0.000005 -0.000017 -15.539301 -0.012948 0.000004 0.000000 -0.000029 -0.000008 -3.974440 -0.000000 -0.000000 -0.000000 
-66.132210 -18.421640 -80.901398 52.746768 -173.608410 0.166862 0.000003 -11.180196 2.228564 14.341053 1.354411 1.102584 0.000009 -8.682987 1.531050 15.214392 0.097161 0.132396 -0.000008 -8.783392 0.768472 22.730716 -3.727974 2.508635 -0.000009 -8.816947 0.000000 -7.422479 -0.248307 -1.349771 -0.000014 -11.336070 -1.133605 -34.662186 -10.350207 7.492993 0.000002 -7.643243 -0.668697 13.127530 3.136327 -3.749706 -0.000003 -7.555889 -1.332294 1.555693 0.091660 0.158474 0.000004 -9.728081 0.000000 0.000002 0.000000 -0.000000 0.000011 -8.097191 -5.270910 0.000005 5.095657 24.415008 -20.762390 -0.000005 0.000008 -79.181557 -14.728087 -93.256712 -29.048958 -0.000015 -0.000006 -41.997986 -15.151767 -13.242326 -22.031239 -0.000004 -0.000019 3.371172 -8.913144 20.816566 -3.579274 2.890222 -2.661509 0.000008 0.000003 0.000005 -9.544696 -0.000002 0.061173 -0.000000 0.000007 -0.000003 0.000007 -8.097191 -5.270910 -0.000002 -10.384518 -17.363557 20.762394 -0.000005 0.000012 -85.632657 34.274972 89.017937 29.048939 0.000006 -0.000007 -55.857215 6.718086 9.787585 22.031235 -0.000044 -0.000020 3.171422 7.430707 -23.192155 3.579266 2.890203 -2.661481 0.000006 -0.000003 -0.000004 9.544695 -0.000020 0.061202 0.000004 0.000001 0.000002 -10.825169 0.000010 0.000001 -70.491425 29.216199 6.069859 0.000006 43.678448 -0.000003 47.014344 0.000003 0.000006 0.000009 36.488430 0.000002 -10.797973 7.930959 -4.317006 -0.000000 3.967827 0.000008 0.000001 0.000000 -0.000001 0.000003 -0.000008 -15.539299 10.663647 -0.000001 0.000003 0.000016 -0.000001 -3.486980 -0.000003 -0.000000 -0.000000 10.825168 -0.000001 0.000006 -73.460706 -15.455881 -19.872024 -0.000014 43.678448 -0.000007 44.010850 0.000001 0.000002 0.000008 36.488445 -0.000008 -2.435824 -0.185594 5.276899 -0.000032 3.967842 -0.000002 0.000000 0.000002 -0.000001 -0.000025 0.000004 -15.539302 -0.355251 0.000000 -0.000000 0.000002 -0.000008 -3.974458 -0.000000 0.000005 -0.000000 
